# Blender v2.78 (sub 0) OBJ File: 'blendercube2.obj'
# www.blender.org
mtllib blenderflat.mtl
o Cube
v -10.079932 -27.980968 -24.404594
v -10.079932 -27.980968 24.404594
v -10.079936 27.980972 24.404591
v -10.079936 27.980957 -24.404602
v -9.999998 -27.980982 -24.404583
v -9.999998 -27.980951 24.404610
v -10.000002 27.980978 24.404587
v -10.000002 27.980965 -24.404594
vn -1.0000 -0.0000 0.0000
vn 1.0000 0.0000 -0.0000
vn -0.0002 -1.0000 0.0000
vn -0.0001 0.0000 1.0000
vn -0.0001 1.0000 -0.0000
vn 0.0002 -0.0000 -1.0000
vn 0.0002 -1.0000 0.0000
vn 0.0000 0.0000 1.0000
vn 0.0001 -0.0000 -1.0000
usemtl Material
s off
f 2//1 4//1 1//1
f 8//2 6//2 5//2
f 5//3 2//3 1//3
f 6//4 3//4 2//4
f 7//5 4//5 3//5
f 1//6 8//6 5//6
f 2//1 3//1 4//1
f 8//2 7//2 6//2
f 5//7 6//7 2//7
f 6//8 7//8 3//8
f 7//5 8//5 4//5
f 1//9 4//9 8//9
